<svg xmlns="http://www.w3.org/2000/svg" aria-hidden="true" style="position:absolute;width:0;height:0;overflow:hidden"><defs><symbol id="icon-arrow" viewBox="0 0 32 32"><path fill="#22c55e" d="M17.413 4.377a1.997 1.997 0 0 0-2.826 0l-7.545 7.541a2.001 2.001 0 0 0 2.83 2.83l4.129-4.128V26a2 2 0 0 0 4 0V10.62l4.128 4.128a2.005 2.005 0 0 0 2.181.434 2 2 0 0 0 1.083-1.083 2 2 0 0 0 0-1.532 2 2 0 0 0-.434-.649l-7.544-7.541z" style="fill:var(--color1, #22c55e)"/></symbol><symbol id="icon-circle" viewBox="0 0 32 32"><path fill="#22c55e" d="M16 2.667c7.364 0 13.333 5.97 13.333 13.333S23.363 29.333 16 29.333 2.667 23.363 2.667 16 8.637 2.667 16 2.667m0 2.666C10.109 5.333 5.333 10.109 5.333 16S10.109 26.667 16 26.667 26.667 21.891 26.667 16 21.891 5.333 16 5.333m0 4a6.667 6.667 0 1 1 0 13.334 6.667 6.667 0 0 1 0-13.334" style="fill:var(--color1, #22c55e)"/></symbol><symbol id="icon-close" viewBox="0 0 32 32"><path fill="#7988a7" d="m8.533 25.333-1.867-1.867 7.467-7.467-7.467-7.467 1.867-1.867L16 14.132l7.467-7.467 1.867 1.867-7.467 7.467 7.467 7.467-1.867 1.867L16 17.866z" style="fill:var(--color2, #7988a7)"/></symbol><symbol id="icon-menu" viewBox="0 0 32 32"><path d="M4 24v-2h24v2zm0-7v-2h24v2zm0-7V8h24v2z"/></symbol></defs></svg>